<svg id="Capa_1" enable-background="new 0 0 242.952 242.952" height="512" viewBox="0 0 242.952 242.952" width="512" xmlns="http://www.w3.org/2000/svg" xmlns:xlink="http://www.w3.org/1999/xlink"><linearGradient id="lg1"><stop offset="0" class="left" stop-color="#20d6de"/><stop offset="1" class="right" stop-color="#5e309d"/></linearGradient><linearGradient id="SVGID_1_" gradientTransform="matrix(1 0 0 -1 0 286)" gradientUnits="userSpaceOnUse" x1="-4.049" x2="257.651" xlink:href="#lg1" y1="265.754" y2="265.754"/><linearGradient id="SVGID_4_" gradientTransform="matrix(1 0 0 -1 0 286)" gradientUnits="userSpaceOnUse" x1="-4.049" x2="257.651" xlink:href="#lg1" y1="164.525" y2="164.525"/><linearGradient id="SVGID_5_" gradientTransform="matrix(1 0 0 -1 0 286)" gradientUnits="userSpaceOnUse" x1="-4.049" x2="257.651" xlink:href="#lg1" y1="172.623" y2="172.623"/><linearGradient id="SVGID_6_" gradientTransform="matrix(1 0 0 -1 0 286)" gradientUnits="userSpaceOnUse" x1="-4.049" x2="257.651" xlink:href="#lg1" y1="180.721" y2="180.721"/><linearGradient id="SVGID_8_" gradientTransform="matrix(1 0 0 -1 0 286)" gradientUnits="userSpaceOnUse" x1="-4.049" x2="257.651" xlink:href="#lg1" y1="155.786" y2="155.786"/><linearGradient id="SVGID_9_" gradientTransform="matrix(1 0 0 -1 0 286)" gradientUnits="userSpaceOnUse" x1="-4.049" x2="257.651" xlink:href="#lg1" y1="87.588" y2="87.588"/><linearGradient id="SVGID_11_" gradientTransform="matrix(1 0 0 -1 0 286)" gradientUnits="userSpaceOnUse" x1="-4.049" x2="257.651" xlink:href="#lg1" y1="87.59" y2="87.59"/><linearGradient id="SVGID_12_" gradientTransform="matrix(1 0 0 -1 0 286)" gradientUnits="userSpaceOnUse" x1="-4.049" x2="257.651" xlink:href="#lg1" y1="196.918" y2="196.918"/><linearGradient id="SVGID_13_" gradientTransform="matrix(1 0 0 -1 0 286)" gradientUnits="userSpaceOnUse" x1="-4.049" x2="257.651" xlink:href="#lg1" y1="160.475" y2="160.475"/><g fill="url(#SVGID_1_)"><path d="m16.197 16.197h8.098v8.098h-8.098z"/><path d="m32.394 16.197h8.098v8.098h-8.098z"/><path d="m48.59 16.197h8.098v8.098h-8.098z"/></g><path d="m238.903 0h-234.854c-2.236 0-4.049 1.813-4.049 4.049v234.853c0 2.236 1.813 4.049 4.049 4.049h234.853c2.236 0 4.049-1.813 4.049-4.049v-234.853c.001-2.236-1.812-4.049-4.048-4.049zm-4.05 32.394h-161.967v-24.296h161.968v24.296zm-226.755-24.296h56.689v24.295h-56.689zm32.394 226.755v-178.164h129.574v28.344c0 2.236 1.813 4.049 4.049 4.049h28.344v145.771zm137.673-172.439 18.57 18.57h-18.57zm32.393 172.439v-149.82c0-1.074-.427-2.104-1.186-2.863l-32.394-32.394c-.759-.759-1.789-1.186-2.863-1.186h-137.672c-2.236 0-4.049 1.813-4.049 4.049v182.214h-24.296v-194.361h226.755v194.362h-24.295z" fill="url(#SVGID_4_)"/><path d="m121.476 161.968c26.836 0 48.59-21.755 48.59-48.59s-21.755-48.59-48.59-48.59-48.59 21.755-48.59 48.59c.029 26.823 21.766 48.561 48.59 48.59zm0-89.082c22.363 0 40.492 18.129 40.492 40.492s-18.129 40.492-40.492 40.492-40.492-18.129-40.492-40.492c.025-22.353 18.139-40.468 40.492-40.492z" fill="url(#SVGID_5_)"/><path d="m100.044 116.24 5.235-5.235 5.236 5.235 5.725-5.725-5.235-5.236 5.235-5.235-5.725-5.726-5.236 5.236-5.235-5.236-5.726 5.726 5.236 5.235-5.236 5.236z" fill="url(#SVGID_6_)"/><path d="m132.437 116.24 5.236-5.235 5.235 5.235 5.726-5.725-5.236-5.236 5.236-5.235-5.726-5.726-5.235 5.236-5.236-5.236-5.725 5.726 5.235 5.235-5.235 5.236z" fill="url(#SVGID_6_)"/><path d="m97.387 136.393 7.693 2.559c.024-.093 3.268-9.378 16.395-9.378 12.905 0 16.282 9.03 16.403 9.378l7.693-2.559c-.207-.611-5.199-14.917-24.097-14.917s-23.888 14.306-24.087 14.917z" fill="url(#SVGID_8_)"/><path d="m89.082 178.165c-.002-2.236-1.817-4.047-4.054-4.045-1.18.001-2.301.517-3.069 1.413l-24.295 28.344c-1.454 1.699-1.254 4.255.445 5.709.732.626 1.664.971 2.628.972h20.246v12.148h8.098v-12.148h8.098v-8.098h-8.098v-24.295zm-8.098 24.295h-11.443l11.443-13.362z" fill="url(#SVGID_9_)"/><path d="m178.165 178.165c-.002-2.236-1.817-4.047-4.054-4.045-1.18.001-2.301.517-3.069 1.413l-24.295 28.344c-1.454 1.699-1.254 4.255.445 5.709.732.626 1.664.971 2.628.972h20.246v12.148h8.098v-12.148h8.098v-8.098h-8.098v-24.295zm-8.099 24.295h-11.443l11.443-13.362z" fill="url(#SVGID_9_)"/><path d="m125.525 174.116h-8.098c-6.709 0-12.148 5.439-12.148 12.148v24.295c0 6.709 5.439 12.148 12.148 12.148h8.098c6.709 0 12.148-5.439 12.148-12.148v-24.295c0-6.71-5.439-12.148-12.148-12.148zm4.049 36.442c0 2.236-1.813 4.049-4.049 4.049h-8.098c-2.236 0-4.049-1.813-4.049-4.049v-24.295c0-2.236 1.813-4.049 4.049-4.049h8.098c2.236 0 4.049 1.813 4.049 4.049z" fill="url(#SVGID_11_)"/><path d="m72.886 64.787h-20.246c-2.236 0-4.049 1.813-4.049 4.049v44.541h8.098v-40.491h16.197z" fill="url(#SVGID_12_)"/><path d="m48.59 121.476h8.098v8.098h-8.098z" fill="url(#SVGID_13_)"/></svg>