<svg id="a594ac37-6d44-4297-8862-1cbd9c01c0b7" data-name="Layer 1" xmlns="http://www.w3.org/2000/svg" width="1126.19355" height="855" viewBox="0 0 1126.19355 855">
    <title>code review</title>
    <ellipse cx="565.19355" cy="756" rx="506" ry="31" fill="#3f3d56" />
    <rect x="196.19355" y="162" width="752" height="590" fill="#3f3d56" />
    <path d="M600.54135,265.12914H415.02363a2.25143,2.25143,0,1,1,0-4.50285H600.54135a2.25143,2.25143,0,0,1,0,4.50285Z" transform="translate(-36.90323 -22.5)" fill="#f2f2f2" />
    <path d="M803.6202,289.89486H511.83506a2.25143,2.25143,0,0,1,0-4.50286H803.6202a2.25143,2.25143,0,1,1,0,4.50286Z" transform="translate(-36.90323 -22.5)" fill="#f2f2f2" />
    <path d="M601.44192,314.66057H415.9242a2.25143,2.25143,0,1,1,0-4.50286H601.44192a2.25143,2.25143,0,1,1,0,4.50286Z" transform="translate(-36.90323 -22.5)" fill="#f2f2f2" />
    <path d="M803.6202,315.11086H618.10249a2.25143,2.25143,0,0,1,0-4.50286H803.6202a2.25143,2.25143,0,1,1,0,4.50286Z" transform="translate(-36.90323 -22.5)" fill="#f2f2f2" />
    <path d="M601.8922,339.42629H416.37449a2.25143,2.25143,0,0,1,0-4.50286H601.8922a2.25143,2.25143,0,1,1,0,4.50286Z" transform="translate(-36.90323 -22.5)" fill="#f2f2f2" />
    <path d="M602.34249,364.192H416.82477a2.25143,2.25143,0,0,1,0-4.50286H602.34249a2.25143,2.25143,0,1,1,0,4.50286Z" transform="translate(-36.90323 -22.5)" fill="#f2f2f2" />
    <path d="M686.54592,265.57943H633.4122a2.25143,2.25143,0,0,1,0-4.50286h53.13372a2.25143,2.25143,0,1,1,0,4.50286Z" transform="translate(-36.90323 -22.5)" fill="#f2f2f2" />
    <path d="M686.54592,339.42629H633.4122a2.25143,2.25143,0,0,1,0-4.50286h53.13372a2.25143,2.25143,0,1,1,0,4.50286Z" transform="translate(-36.90323 -22.5)" fill="#f2f2f2" />
    <path d="M686.54592,363.74171H633.4122a2.25143,2.25143,0,1,1,0-4.50285h53.13372a2.25143,2.25143,0,1,1,0,4.50285Z" transform="translate(-36.90323 -22.5)" fill="#f2f2f2" />
    <path d="M775.70249,363.74171H722.56877a2.25143,2.25143,0,0,1,0-4.50285h53.13372a2.25143,2.25143,0,1,1,0,4.50285Z" transform="translate(-36.90323 -22.5)" fill="#f2f2f2" />
    <path d="M467.70706,289.89486H414.57335a2.25143,2.25143,0,0,1,0-4.50286h53.13371a2.25143,2.25143,0,0,1,0,4.50286Z" transform="translate(-36.90323 -22.5)" fill="#f2f2f2" />
    <path d="M600.76649,629.86057H415.24877a2.25143,2.25143,0,0,1,0-4.50286H600.76649a2.25143,2.25143,0,0,1,0,4.50286Z" transform="translate(-36.90323 -22.5)" fill="#f2f2f2" />
    <path d="M599.86592,679.392H414.3482a2.25143,2.25143,0,1,1,0-4.50286H599.86592a2.25143,2.25143,0,0,1,0,4.50286Z" transform="translate(-36.90323 -22.5)" fill="#f2f2f2" />
    <path d="M600.3162,704.15771H414.79849a2.25143,2.25143,0,1,1,0-4.50285H600.3162a2.25143,2.25143,0,1,1,0,4.50285Z" transform="translate(-36.90323 -22.5)" fill="#f2f2f2" />
    <path d="M679.56649,679.84229H626.43277a2.25143,2.25143,0,0,1,0-4.50286h53.13372a2.25143,2.25143,0,0,1,0,4.50286Z" transform="translate(-36.90323 -22.5)" fill="#f2f2f2" />
    <path d="M679.56649,704.15771H626.43277a2.25142,2.25142,0,0,1,0-4.50285h53.13372a2.25142,2.25142,0,1,1,0,4.50285Z" transform="translate(-36.90323 -22.5)" fill="#f2f2f2" />
    <path d="M768.72306,679.84229H715.58935a2.25143,2.25143,0,1,1,0-4.50286h53.13371a2.25143,2.25143,0,0,1,0,4.50286Z" transform="translate(-36.90323 -22.5)" fill="#f2f2f2" />
    <path d="M803.84535,654.62629H512.0602a2.25143,2.25143,0,0,1,0-4.50286H803.84535a2.25143,2.25143,0,0,1,0,4.50286Z" transform="translate(-36.90323 -22.5)" fill="#f2f2f2" />
    <path d="M467.9322,654.62629H414.79849a2.25143,2.25143,0,0,1,0-4.50286H467.9322a2.25143,2.25143,0,0,1,0,4.50286Z" transform="translate(-36.90323 -22.5)" fill="#f2f2f2" />
    <path d="M803.84535,729.37371H512.0602a2.25143,2.25143,0,1,1,0-4.50285H803.84535a2.25142,2.25142,0,0,1,0,4.50285Z" transform="translate(-36.90323 -22.5)" fill="#f2f2f2" />
    <path d="M467.9322,729.37371H414.79849a2.25143,2.25143,0,1,1,0-4.50285H467.9322a2.25143,2.25143,0,1,1,0,4.50285Z" transform="translate(-36.90323 -22.5)" fill="#f2f2f2" />
    <polygon points="519.06 401.13 447.014 472.275 519.06 543.42 535.27 527.21 480.786 472.725 535.72 417.79 519.06 401.13" fill="#72f1b8" />
    <polygon points="625.327 401.13 697.373 472.275 625.327 543.42 609.117 527.21 663.602 472.725 608.667 417.79 625.327 401.13" fill="#ff7edb" />
    <circle cx="216.19355" cy="177" r="9" fill="#fe5e57" />
    <circle cx="240.19355" cy="177" r="9" fill="#febd2e" />
    <circle cx="264.19355" cy="177" r="9" fill="#28ca41" />
    <rect x="196.19355" y="192" width="752" height="3" opacity="0.1" />
</svg>