<?xml version="1.0" encoding="iso-8859-1"?>
<!-- Generator: Adobe Illustrator 19.0.0, SVG Export Plug-In . SVG Version: 6.00 Build 0)  -->
<svg version="1.1" id="Layer_1" xmlns="http://www.w3.org/2000/svg" xmlns:xlink="http://www.w3.org/1999/xlink" x="0px" y="0px"
	 viewBox="0 0 512.002 512.002" style="enable-background:new 0 0 512.002 512.002;" xml:space="preserve">
<path d="M287.139,366.267c-84.329-27.894-145.345-107.472-145.345-201.029
	c0-46.833,14.997-91.22,43.365-128.358c3.712-4.86,3.639-11.621-0.176-16.401c-3.815-4.779-10.393-6.351-15.954-3.804
	c-43.196,19.756-79.824,51.252-105.92,91.08C36.319,148.64,22.16,196.195,22.16,245.278c0,138.547,112.717,251.264,251.264,251.264
	c49.085,0,96.638-14.161,137.524-40.949c39.827-26.097,71.323-62.724,91.08-105.922c2.544-5.562,0.975-12.14-3.804-15.955
	c-4.779-3.814-11.542-3.886-16.401-0.175c-37.137,28.37-81.524,43.365-128.358,43.365c-12.955,0-25.645-1.17-37.966-3.409"/>
<path d="M440.589,427.36c-40.886,26.79-88.439,40.949-137.523,40.949
	c-138.547,0-251.264-112.717-251.264-251.264c0-49.083,14.159-96.638,40.949-137.523c6.67-10.18,14.032-19.812,22.011-28.846
	c-17.166,15.012-32.314,32.367-44.975,51.691c-26.79,40.886-40.949,88.44-40.949,137.523c0,138.547,112.718,251.264,251.265,251.264
	c49.085,0,96.638-14.161,137.523-40.949c18.96-12.423,36.025-27.236,50.841-44.004C459.715,413.851,450.407,420.927,440.589,427.36z
	"/>
<g>
	<path d="M344.021,155.33c-25.56,0-46.282-20.723-46.282-46.283c0,25.561-20.722,46.283-46.283,46.283
		c25.563,0,46.283,20.723,46.283,46.282C297.738,176.053,318.461,155.33,344.021,155.33z"/>
	<circle  cx="375.403" cy="249.452" r="18.486"/>
	<circle  cx="40.451" cy="464.016" r="18.486"/>
</g>
<g>
	<path style="fill:#231F20;" d="M273.423,505.3c-143.376,0-260.021-116.646-260.021-260.021c0-50.794,14.655-100.009,42.382-142.323
		c27.003-41.212,64.904-73.801,109.603-94.245c9.226-4.223,20.101-1.635,26.439,6.304c6.334,7.935,6.454,19.112,0.292,27.179
		c-27.194,35.599-41.568,78.148-41.568,123.042c0,87.702,55.995,165.148,139.338,192.715c4.591,1.519,7.082,6.473,5.564,11.065
		c-1.521,4.59-6.471,7.08-11.065,5.564c-43.65-14.437-81.203-41.761-108.6-79.017c-27.969-38.031-42.752-83.098-42.752-130.328
		c0-48.771,15.618-94.994,45.163-133.673c1.274-1.667,1.249-3.98-0.061-5.621c-1.31-1.642-3.555-2.178-5.462-1.305
		c-41.699,19.072-77.052,49.473-102.242,87.92c-25.851,39.453-39.517,85.348-39.517,132.723
		c0,133.718,108.788,242.507,242.507,242.507c47.372,0,93.268-13.665,132.724-39.517c38.446-25.191,68.848-60.546,87.917-102.238
		c0.874-1.91,0.338-4.159-1.303-5.469c-1.642-1.308-3.954-1.336-5.624-0.059c-38.674,29.545-84.899,45.162-133.671,45.162
		c-13.264,0-26.565-1.194-39.53-3.55c-4.76-0.865-7.917-5.423-7.051-10.181c0.865-4.761,5.421-7.919,10.181-7.051
		c11.936,2.167,24.183,3.268,36.401,3.268c44.899,0,87.445-14.374,123.041-41.568c8.07-6.162,19.247-6.041,27.18,0.29
		c7.936,6.337,10.527,17.21,6.305,26.443c-20.445,44.699-53.034,82.6-94.245,109.603C373.431,490.645,324.216,505.3,273.423,505.3z"
		/>
	<path style="fill:#231F20;" d="M297.738,210.369c-4.836,0-8.757-3.921-8.757-8.757c0-20.691-16.835-37.525-37.526-37.525
		c-4.836,0-8.757-3.921-8.757-8.757s3.921-8.757,8.757-8.757c20.691,0,37.526-16.835,37.526-37.526c0-4.836,3.921-8.757,8.757-8.757
		s8.757,3.921,8.757,8.757c0,20.691,16.834,37.526,37.525,37.526c4.836,0,8.757,3.921,8.757,8.757s-3.921,8.757-8.757,8.757
		c-20.691,0-37.525,16.834-37.525,37.525C306.495,206.448,302.574,210.369,297.738,210.369z M281.215,155.33
		c6.614,4.267,12.256,9.909,16.524,16.523c4.267-6.614,9.909-12.255,16.523-16.523c-6.614-4.267-12.255-9.91-16.523-16.524
		C293.471,145.42,287.829,151.063,281.215,155.33z"/>
	<path style="fill:#231F20;" d="M375.405,276.698c-15.022,0-27.243-12.221-27.243-27.242c0-15.022,12.221-27.244,27.243-27.244
		s27.244,12.222,27.244,27.244C402.649,264.477,390.427,276.698,375.405,276.698z M375.405,239.728
		c-5.364,0-9.728,4.364-9.728,9.729c0,5.363,4.363,9.727,9.728,9.727c5.364,0,9.729-4.363,9.729-9.727
		C385.134,244.093,380.77,239.728,375.405,239.728z"/>
	<path style="fill:#231F20;" d="M40.451,491.256c-15.022,0-27.243-12.222-27.243-27.244c0-15.021,12.221-27.242,27.243-27.242
		s27.243,12.221,27.243,27.243C67.694,479.034,55.473,491.256,40.451,491.256z M40.451,454.285c-5.364,0-9.728,4.363-9.728,9.728
		c0,5.364,4.363,9.729,9.728,9.729s9.728-4.364,9.728-9.729S45.816,454.285,40.451,454.285z"/>
	<circle style="fill:#231F20;" cx="297.737" cy="260.442" r="10.979"/>
	<circle style="fill:#231F20;" cx="10.979" cy="392.272" r="10.979"/>
	<circle style="fill:#231F20;" cx="368.145" cy="90.737" r="10.979"/>
</g>
</svg>
