<?xml version="1.0" encoding="iso-8859-1"?>
<!-- Generator: Adobe Illustrator 18.1.1, SVG Export Plug-In . SVG Version: 6.00 Build 0)  -->
<svg version="1.1" id="Capa_1" xmlns="http://www.w3.org/2000/svg" xmlns:xlink="http://www.w3.org/1999/xlink" x="0px" y="0px"
	 viewBox="0 0 166.398 166.398" style="enable-background:new 0 0 166.398 166.398;" xml:space="preserve">
<g>
	<g>
		<path class="path" d="M98.074,0c-1.647,0-2.983,1.343-2.983,2.983c0,1.647,1.337,2.983,2.983,2.983h45.104L67.822,81.322
			c-1.164,1.164-1.164,3.061,0,4.219c0.585,0.591,1.354,0.871,2.112,0.871c0.77,0,1.533-0.292,2.112-0.871l75.362-75.356v45.08
			c0,1.653,1.331,2.983,2.983,2.983c1.641,0,2.983-1.331,2.983-2.983V0H98.074z"/>
		<path class="path" d="M120.229,60.331c-1.641,0-2.983,1.343-2.983,2.983v56.268H76.397v40.849H18.99V29.781h73.464
			c1.647,0,2.983-1.337,2.983-2.983s-1.337-2.983-2.983-2.983H13.023v142.584H80.86l42.353-41.559V63.314
			C123.213,61.674,121.87,60.331,120.229,60.331z M113.964,125.549l-31.601,31.016v-31.016H113.964z"/>
	</g>
</g>
</svg>
